<svg width="40" height="40" viewBox="0 0 40 40" fill="none" xmlns="http://www.w3.org/2000/svg">
<path d="M11.25 3.33337C10.9185 3.33337 10.6005 3.46507 10.3661 3.69949C10.1317 3.93391 10 4.25185 10 4.58337V16.25C10.0003 18.5751 10.8457 20.8208 12.3788 22.5689C13.9119 24.3169 16.0282 25.4481 18.3333 25.7517V34.18L14.5883 34.1667C14.2568 34.1654 13.9383 34.2958 13.703 34.5293C13.4676 34.7628 13.3347 35.0802 13.3333 35.4117C13.332 35.7432 13.4624 36.0617 13.6959 36.2971C13.9294 36.5324 14.2468 36.6654 14.5783 36.6667L19.5783 36.685H19.5867L25.42 36.6667C25.7515 36.6658 26.0691 36.5333 26.3029 36.2982C26.5367 36.0632 26.6676 35.7449 26.6667 35.4134C26.6658 35.0819 26.5332 34.7643 26.2982 34.5305C26.0631 34.2967 25.7449 34.1658 25.4133 34.1667L20.8333 34.1817V25.76C23.3613 25.4541 25.6897 24.2329 27.3787 22.3272C29.0676 20.4214 30.0001 17.9631 30 15.4167V4.58337C30 4.25185 29.8683 3.93391 29.6339 3.69949C29.3995 3.46507 29.0815 3.33337 28.75 3.33337H11.25ZM12.5 11.6667V5.83337H27.5V11.6667H12.5ZM26.1383 16.1784C25.886 17.5057 25.2079 18.7145 24.2067 19.6217C23.3829 20.3721 22.3737 20.8888 21.2833 21.1184C21.067 21.1637 20.8415 21.1212 20.6564 21.0002C20.4714 20.8793 20.342 20.6897 20.2967 20.4734C20.2514 20.257 20.2939 20.0315 20.4148 19.8465C20.5358 19.6614 20.7253 19.532 20.9417 19.4867C21.7415 19.3198 22.4817 18.941 23.085 18.39C23.8164 17.7226 24.3132 16.8371 24.5017 15.865C24.5466 15.6513 24.6737 15.4638 24.8555 15.3428C25.0373 15.2219 25.2593 15.1771 25.4738 15.2182C25.6883 15.2592 25.8781 15.3828 26.0024 15.5624C26.1267 15.742 26.1755 15.9632 26.1383 16.1784V16.1784Z" fill="#E03614"/>
</svg>
