<svg width="213" height="168" viewBox="0 0 213 168" fill="none" xmlns="http://www.w3.org/2000/svg">
<path fill-rule="evenodd" clip-rule="evenodd" d="M150.623 102.391C115.445 93.0521 76.2983 100.446 60.733 105.893C68.502 88.3288 71.3536 74.7423 71.9226 65.0345C72.4023 56.8486 71.259 51.4206 70.0722 48.691C73.2492 53.156 77.438 62.7253 77.017 74.3737C102.808 65.9685 132.838 73.7252 144.63 78.6542C145.472 73.2192 147.261 68.1273 150.623 65.0345C145.019 83.0903 148.288 97.4623 150.623 102.391ZM192.26 40.13C186.968 61.9215 162.297 65.8128 150.623 65.0345C142.84 65.0345 133.112 56.4736 129.22 52.1932C161.285 67.1359 176.305 51.1554 179.808 41.2973C182.661 35.9792 185.022 23.1637 171.636 14.4472C158.25 5.73058 131.815 13.1501 120.27 17.9495C123.713 15.9296 127.097 14.1895 130.388 12.6948C124.81 7.05282 108.519 -0.729029 87.9723 13.2798C96.3776 20.1284 109.115 23.3973 114.433 24.1756C108.856 24.3054 95.7547 23.5532 87.9723 19.506C80.1899 15.4589 72.2777 15.2255 69.2943 15.6147C63.0679 15.7444 51.0044 20.1287 52.5612 36.6279C54.118 53.1271 66.1175 62.4403 71.9226 65.0345C63.1295 65.0345 55.3512 60.6244 52.5612 58.4193C46.7242 53.2309 37.1516 38.4179 45.5568 20.6734C53.9621 2.92899 75.2606 7.57253 84.8592 12.1124C108.519 -8.43386 130.526 1.73548 138.573 9.38843C153.895 3.95723 166.261 3.77601 171.636 4.71894C180.716 7.44287 197.552 18.3386 192.26 40.13ZM144.786 98.1108C121.126 90.0169 86.4158 91.6253 72.0179 93.4412C75.0937 87.3857 76.5422 81.4464 76.9337 75.9303C114.487 70.0154 137.29 80.7296 143.997 86.826C143.951 91.2101 144.328 95.2727 144.786 98.1108Z" fill="#FAFAFA"/>
<path d="M212.688 148.26L175.721 87.9443L201.403 141.256C195.81 141.256 181.951 137.105 175.721 135.029C170.532 132.695 156.186 127.869 140.31 127.247C124.433 126.624 117.091 138.661 115.405 144.758C124.122 135.73 135.64 133.213 140.31 133.084C145.109 132.824 158.91 134.095 175.721 141.256C192.531 148.416 207.37 148.908 212.688 148.26Z" fill="#FAFAFA"/>
<path d="M140.31 139.31C130.348 139.932 121.631 145.536 118.518 148.26C121.891 145.925 130.97 141.022 140.31 140.088C149.649 139.154 161.323 143.85 165.992 146.314C161.582 143.72 150.271 138.687 140.31 139.31Z" fill="#FAFAFA"/>
<path d="M106.844 166.938C102.564 167.587 92.6797 166.938 87.3875 159.156C81.4208 157.599 60.9265 156.977 26.6828 166.938L9.95006 152.151L26.6828 160.323C39.0053 156.432 68.9426 149.35 90.1114 152.151C92.0571 155.264 98.1276 161.257 106.844 160.323C115.561 161.257 121.631 155.264 123.577 152.151C144.746 149.35 174.683 156.432 187.006 160.323L203.738 152.151L187.006 166.938C152.762 156.977 132.267 157.599 126.301 159.156C121.009 166.938 111.125 167.587 106.844 166.938Z" fill="#FAFAFA"/>
<path d="M37.9676 87.9443L1 148.26C6.31815 148.908 21.1571 148.416 37.9676 141.256C54.7782 134.095 68.5794 132.824 73.3787 133.084C78.0483 133.213 89.5666 135.73 98.2832 144.758C96.597 138.661 89.2553 126.624 73.3787 127.247C57.5021 127.869 43.1561 132.695 37.9676 135.029C31.7373 137.105 17.8783 141.256 12.2849 141.256L37.9676 87.9443Z" fill="#FAFAFA"/>
<path d="M95.1702 148.26C92.0571 145.536 83.3405 139.932 73.3787 139.31C63.4169 138.687 52.1061 143.72 47.6959 146.314C52.3655 143.85 64.0395 139.154 73.3787 140.088C82.7179 141.022 91.7977 145.925 95.1702 148.26Z" fill="#FAFAFA"/>
<path d="M37.9676 87.9443L38.1429 88.0288C38.1879 87.9354 38.1518 87.8232 38.0608 87.7735C37.9698 87.7239 37.8559 87.7543 37.8017 87.8427L37.9676 87.9443ZM1 148.26L0.834112 148.158C0.79951 148.215 0.795996 148.285 0.824786 148.345C0.853576 148.404 0.910717 148.445 0.976447 148.453L1 148.26ZM73.3787 133.084L73.3682 133.278L73.3733 133.278L73.3787 133.084ZM98.2832 144.758L98.1433 144.893C98.2051 144.957 98.3024 144.971 98.3797 144.927C98.457 144.883 98.4945 144.792 98.4707 144.706L98.2832 144.758ZM37.9676 135.029L38.0291 135.214C38.0353 135.212 38.0415 135.21 38.0475 135.207L37.9676 135.029ZM12.2849 141.256L12.1096 141.171C12.0805 141.231 12.0845 141.302 12.1201 141.359C12.1557 141.416 12.2179 141.45 12.2849 141.45V141.256ZM95.1702 148.26L95.0594 148.42C95.1442 148.479 95.2602 148.461 95.3236 148.38C95.387 148.298 95.3759 148.181 95.2983 148.114L95.1702 148.26ZM87.2965 149.599C87.3914 149.65 87.5092 149.613 87.5595 149.518C87.6097 149.423 87.5735 149.306 87.4785 149.255L87.2965 149.599ZM54.2464 149.244L54.063 149.309L54.1925 149.676L54.376 149.611L54.2464 149.244ZM106.844 166.938L106.873 166.746C106.854 166.743 106.834 166.743 106.815 166.746L106.844 166.938ZM87.3875 159.156L87.5484 159.046C87.5219 159.007 87.4822 158.979 87.4366 158.967L87.3875 159.156ZM26.6828 166.938L26.5539 167.084C26.6039 167.128 26.6731 167.144 26.7371 167.125L26.6828 166.938ZM9.95006 152.151L10.0354 151.976C9.94796 151.934 9.84236 151.962 9.78828 152.043C9.73419 152.124 9.74826 152.233 9.82121 152.297L9.95006 152.151ZM26.6828 160.323L26.5974 160.498C26.6422 160.52 26.6938 160.524 26.7414 160.509L26.6828 160.323ZM90.1114 152.151L90.2764 152.048C90.2457 151.999 90.1945 151.966 90.137 151.958L90.1114 152.151ZM106.844 160.323L106.865 160.13C106.851 160.128 106.837 160.128 106.823 160.13L106.844 160.323ZM175.721 87.9443L175.887 87.8427C175.832 87.7543 175.718 87.7239 175.627 87.7735C175.537 87.8232 175.5 87.9354 175.545 88.0288L175.721 87.9443ZM212.688 148.26L212.712 148.453C212.778 148.445 212.835 148.404 212.864 148.345C212.892 148.285 212.889 148.215 212.854 148.158L212.688 148.26ZM175.721 141.256L175.644 141.435L175.644 141.435L175.721 141.256ZM140.31 133.084L140.315 133.278L140.32 133.278L140.31 133.084ZM115.405 144.758L115.218 144.706C115.194 144.792 115.231 144.883 115.309 144.927C115.386 144.971 115.483 144.957 115.545 144.893L115.405 144.758ZM175.721 135.029L175.641 135.207C175.647 135.21 175.653 135.212 175.659 135.214L175.721 135.029ZM201.403 141.256V141.45C201.47 141.45 201.533 141.416 201.568 141.359C201.604 141.302 201.608 141.231 201.579 141.171L201.403 141.256ZM118.518 148.26L118.39 148.114C118.312 148.181 118.301 148.298 118.365 148.38C118.428 148.461 118.544 148.479 118.629 148.42L118.518 148.26ZM126.21 149.255C126.115 149.306 126.079 149.423 126.129 149.518C126.179 149.613 126.297 149.65 126.392 149.599L126.21 149.255ZM159.312 149.611L159.496 149.676L159.625 149.309L159.442 149.244L159.312 149.611ZM126.301 159.156L126.252 158.967C126.206 158.979 126.166 159.007 126.14 159.046L126.301 159.156ZM187.006 166.938L186.951 167.125C187.015 167.144 187.084 167.128 187.134 167.084L187.006 166.938ZM203.738 152.151L203.867 152.297C203.94 152.233 203.954 152.124 203.9 152.043C203.846 151.962 203.74 151.934 203.653 151.976L203.738 152.151ZM187.006 160.323L186.947 160.509C186.995 160.524 187.046 160.52 187.091 160.498L187.006 160.323ZM123.577 152.151L123.551 151.958C123.494 151.966 123.443 151.999 123.412 152.048L123.577 152.151ZM37.8017 87.8427L0.834112 148.158L1.16589 148.362L38.1335 88.046L37.8017 87.8427ZM0.976447 148.453C6.32934 149.106 21.2026 148.608 38.0439 141.435L37.8914 141.077C21.1115 148.224 6.30696 148.711 1.02355 148.067L0.976447 148.453ZM38.0439 141.435C54.8309 134.285 68.6025 133.02 73.3682 133.278L73.3892 132.889C68.5563 132.628 54.7254 133.906 37.8914 141.077L38.0439 141.435ZM73.3733 133.278C78.005 133.407 89.4701 135.91 98.1433 144.893L98.4232 144.623C89.6632 135.55 78.0917 133.02 73.3841 132.889L73.3733 133.278ZM98.4707 144.706C96.7709 138.56 89.372 126.425 73.3711 127.052L73.3863 127.441C89.1387 126.823 96.4231 138.762 98.0957 144.81L98.4707 144.706ZM73.3711 127.052C57.4652 127.676 43.0947 132.509 37.8878 134.852L38.0475 135.207C43.2175 132.88 57.539 128.063 73.3863 127.441L73.3711 127.052ZM37.9061 134.845C34.7941 135.881 29.7759 137.437 24.838 138.733C19.8918 140.031 15.0526 141.061 12.2849 141.061V141.45C15.1106 141.45 19.9976 140.405 24.9368 139.109C29.8844 137.811 34.9108 136.253 38.0291 135.214L37.9061 134.845ZM12.4601 141.34L38.1429 88.0288L37.7923 87.8599L12.1096 141.171L12.4601 141.34ZM95.2983 148.114C92.165 145.372 83.4092 139.742 73.3909 139.116L73.3666 139.504C83.2718 140.123 91.9492 145.7 95.042 148.406L95.2983 148.114ZM73.3909 139.116C68.376 138.802 63.0316 139.912 58.3953 141.421C53.7577 142.93 49.8145 144.842 47.5973 146.147L47.7946 146.482C49.9875 145.192 53.9049 143.291 58.5157 141.791C63.1277 140.29 68.4196 139.195 73.3666 139.504L73.3909 139.116ZM87.4785 149.255C83.0197 146.895 70.1736 143.623 54.2464 149.244L54.376 149.611C70.202 144.025 82.935 147.29 87.2965 149.599L87.4785 149.255ZM106.815 166.746C104.7 167.066 101.188 167.067 97.549 166.022C93.9127 164.977 90.1625 162.891 87.5484 159.046L87.2266 159.265C89.9047 163.203 93.7426 165.333 97.4415 166.396C101.138 167.458 104.708 167.459 106.873 167.131L106.815 166.746ZM87.4366 158.967C84.4214 158.181 77.7801 157.638 67.6219 158.534C57.4581 159.43 43.7611 161.767 26.6284 166.751L26.7371 167.125C43.8481 162.147 57.5201 159.815 67.6561 158.921C77.7977 158.027 84.3869 158.574 87.3384 159.344L87.4366 158.967ZM26.8116 166.793L10.0789 152.005L9.82121 152.297L26.5539 167.084L26.8116 166.793ZM9.86467 152.326L26.5974 160.498L26.7682 160.148L10.0354 151.976L9.86467 152.326ZM26.7414 160.509C32.8941 158.566 43.4499 155.824 55.1111 153.919C66.7748 152.014 79.5294 150.947 90.0859 152.344L90.137 151.958C79.5246 150.554 66.7261 151.627 55.0484 153.535C43.3681 155.444 32.794 158.189 26.6242 160.138L26.7414 160.509ZM89.9464 152.254C91.9135 155.402 98.0455 161.461 106.865 160.517L106.823 160.13C98.2097 161.052 92.2007 155.127 90.2764 152.048L89.9464 152.254ZM95.2809 148.1C91.8929 145.754 82.7817 140.833 73.3981 139.895L73.3594 140.282C82.6541 141.211 91.7025 146.096 95.0594 148.42L95.2809 148.1ZM73.3981 139.895C68.6928 139.424 63.4119 140.372 58.7316 141.74C54.0491 143.109 49.9511 144.904 47.6051 146.142L47.7868 146.486C50.1104 145.26 54.1842 143.475 58.8408 142.114C63.4997 140.751 68.7254 139.818 73.3594 140.282L73.3981 139.895ZM25.5097 151.178C27.7272 151.244 31.4948 151.087 35.6062 150.407C39.7159 149.728 44.1836 148.523 47.7917 146.484L47.6002 146.145C44.0482 148.153 39.6308 149.347 35.5427 150.023C31.4563 150.699 27.7138 150.854 25.5211 150.789L25.5097 151.178ZM175.555 88.046L212.522 148.362L212.854 148.158L175.887 87.8427L175.555 88.046ZM212.665 148.067C207.381 148.711 192.577 148.224 175.797 141.077L175.644 141.435C192.486 148.608 207.359 149.106 212.712 148.453L212.665 148.067ZM175.797 141.077C158.963 133.906 145.132 132.628 140.299 132.889L140.32 133.278C145.086 133.02 158.857 134.285 175.644 141.435L175.797 141.077ZM140.304 132.889C135.597 133.02 124.025 135.55 115.265 144.623L115.545 144.893C124.218 135.91 135.683 133.407 140.315 133.278L140.304 132.889ZM115.593 144.81C117.265 138.762 124.55 126.823 140.302 127.441L140.317 127.052C124.316 126.425 116.917 138.56 115.218 144.706L115.593 144.81ZM140.302 127.441C156.149 128.063 170.471 132.88 175.641 135.207L175.801 134.852C170.594 132.509 156.223 127.676 140.317 127.052L140.302 127.441ZM175.659 135.214C178.777 136.253 183.804 137.811 188.751 139.109C193.691 140.405 198.578 141.45 201.403 141.45V141.061C198.636 141.061 193.796 140.031 188.85 138.733C183.912 137.437 178.894 135.881 175.782 134.845L175.659 135.214ZM201.579 141.171L175.896 87.8599L175.545 88.0288L201.228 141.34L201.579 141.171ZM118.646 148.406C121.739 145.7 130.416 140.123 140.322 139.504L140.297 139.116C130.279 139.742 121.523 145.372 118.39 148.114L118.646 148.406ZM140.322 139.504C145.269 139.195 150.561 140.29 155.173 141.791C159.783 143.291 163.701 145.192 165.894 146.482L166.091 146.147C163.874 144.842 159.931 142.93 155.293 141.421C150.657 139.912 145.312 138.802 140.297 139.116L140.322 139.504ZM126.392 149.599C130.753 147.29 143.486 144.025 159.312 149.611L159.442 149.244C143.515 143.623 130.669 146.895 126.21 149.255L126.392 149.599ZM106.815 167.131C108.981 167.459 112.55 167.458 116.247 166.396C119.946 165.333 123.784 163.203 126.462 159.265L126.14 159.046C123.526 162.891 119.776 164.977 116.139 166.022C112.501 167.067 108.988 167.066 106.873 166.746L106.815 167.131ZM126.35 159.344C129.301 158.574 135.891 158.027 146.032 158.921C156.168 159.815 169.84 162.147 186.951 167.125L187.06 166.751C169.927 161.767 156.23 159.43 146.066 158.534C135.908 157.638 129.267 158.181 126.252 158.967L126.35 159.344ZM187.134 167.084L203.867 152.297L203.609 152.005L186.877 166.793L187.134 167.084ZM203.653 151.976L186.92 160.148L187.091 160.498L203.824 152.326L203.653 151.976ZM187.064 160.138C180.894 158.189 170.32 155.444 158.64 153.535C146.962 151.627 134.164 150.554 123.551 151.958L123.602 152.344C134.159 150.947 146.913 152.014 158.577 153.919C170.238 155.824 180.794 158.566 186.947 160.509L187.064 160.138ZM123.412 152.048C121.488 155.127 115.479 161.052 106.865 160.13L106.823 160.517C115.643 161.461 121.775 155.402 123.742 152.254L123.412 152.048ZM118.629 148.42C121.986 146.096 131.034 141.211 140.329 140.282L140.29 139.895C130.907 140.833 121.795 145.754 118.407 148.1L118.629 148.42ZM140.329 140.282C144.963 139.818 150.189 140.751 154.847 142.114C159.504 143.475 163.578 145.26 165.902 146.486L166.083 146.142C163.737 144.904 159.639 143.109 154.957 141.74C150.276 140.372 144.995 139.424 140.29 139.895L140.329 140.282ZM188.167 150.789C185.975 150.854 182.232 150.699 178.146 150.023C174.057 149.347 169.64 148.153 166.088 146.145L165.897 146.484C169.505 148.523 173.972 149.728 178.082 150.407C182.193 151.087 185.961 151.244 188.179 151.178L188.167 150.789Z" fill="#FAFAFA"/>
<path d="M143.915 113.394C112.473 106.856 62.5861 121.047 41.5729 128.959C37.4222 131.294 28.8093 133.94 27.5641 125.846C26.3189 117.752 36.6601 113.785 41.5729 111.837C64.1433 102.889 117.455 102.109 143.915 103.276C155.875 87.7323 171.051 86.9542 180.883 88.491C198.29 92.7914 193.899 107.436 189.055 112.617C184.671 117.306 180.779 119.641 170.765 120.398C162.023 121.058 149.233 116.118 143.915 113.394Z" fill="#FAFAFA"/>
</svg>
