<svg width="327" height="165" viewBox="0 0 327 165" fill="none" xmlns="http://www.w3.org/2000/svg">
<path d="M45.792 57.024C47.16 56.952 48.384 57.024 49.464 57.24C50.616 57.456 51.732 57.852 52.812 58.428C52.38 67.068 50.184 73.62 46.224 78.084C42.264 82.548 36.72 84.78 29.592 84.78C21.744 84.78 15.66 81.828 11.34 75.924C7.092 70.02 4.968 61.596 4.968 50.652C4.968 37.404 7.704 26.676 13.176 18.468C18.72 10.26 25.956 6.156 34.884 6.156C41.148 6.156 45.756 8.208 48.708 12.312C51.66 16.344 53.028 22.5 52.812 30.78C51.804 31.428 50.58 31.932 49.14 32.292C47.772 32.58 46.188 32.688 44.388 32.616C44.892 25.488 44.28 20.34 42.552 17.172C40.824 14.004 37.764 12.42 33.372 12.42C27.972 12.42 23.4 15.804 19.656 22.572C15.912 29.34 14.04 38.088 14.04 48.816C14.04 58.392 15.48 65.736 18.36 70.848C21.24 75.96 25.38 78.516 30.78 78.516C35.676 78.516 39.456 76.608 42.12 72.792C44.784 68.904 46.008 63.648 45.792 57.024ZM62.3025 54.864C62.3025 45.504 64.4265 37.872 68.6745 31.968C72.9945 26.064 78.5385 23.112 85.3065 23.112C90.8505 23.112 95.2425 25.236 98.4825 29.484C101.723 33.66 103.343 39.312 103.343 46.44C103.343 56.88 101.291 65.448 97.1865 72.144C93.1545 78.768 87.7905 82.08 81.0945 82.08C75.3345 82.08 70.7625 79.596 67.3785 74.628C63.9945 69.588 62.3025 63 62.3025 54.864ZM94.7025 50.976C94.7025 43.632 93.7665 38.16 91.8945 34.56C90.0225 30.96 87.1785 29.16 83.3625 29.16C79.9065 29.16 76.8825 31.536 74.2905 36.288C71.7705 41.04 70.5105 46.872 70.5105 53.784C70.5105 60.12 71.5905 65.448 73.7505 69.768C75.9105 74.016 78.8265 76.14 82.4985 76.14C85.7385 76.14 88.5825 73.692 91.0305 68.796C93.4785 63.828 94.7025 57.888 94.7025 50.976ZM111.873 54.864C111.873 45.504 113.997 37.872 118.245 31.968C122.565 26.064 128.109 23.112 134.877 23.112C140.421 23.112 144.813 25.236 148.053 29.484C151.293 33.66 152.913 39.312 152.913 46.44C152.913 56.88 150.861 65.448 146.757 72.144C142.725 78.768 137.361 82.08 130.665 82.08C124.905 82.08 120.333 79.596 116.949 74.628C113.565 69.588 111.873 63 111.873 54.864ZM144.273 50.976C144.273 43.632 143.337 38.16 141.465 34.56C139.593 30.96 136.749 29.16 132.933 29.16C129.477 29.16 126.453 31.536 123.861 36.288C121.341 41.04 120.081 46.872 120.081 53.784C120.081 60.12 121.161 65.448 123.321 69.768C125.481 74.016 128.397 76.14 132.069 76.14C135.309 76.14 138.153 73.692 140.601 68.796C143.049 63.828 144.273 57.888 144.273 50.976ZM170.327 55.512C170.327 60.84 170.471 65.952 170.759 70.848C171.047 75.744 171.515 80.64 172.163 85.536C170.939 85.824 169.643 86.04 168.275 86.184C166.907 86.328 165.719 86.4 164.711 86.4C163.847 77.832 163.271 70.812 162.983 65.34C162.695 59.868 162.551 54.144 162.551 48.168C162.551 40.248 162.803 32.256 163.307 24.192C163.883 16.128 164.675 8.64 165.683 1.728C167.267 1.58399 168.887 1.58399 170.543 1.728C172.199 1.872 173.567 2.12399 174.647 2.48399C173.423 10.116 172.451 17.676 171.731 25.164C171.011 32.58 170.579 39.96 170.435 47.304C175.547 42.84 179.867 38.556 183.395 34.452C186.995 30.276 190.847 24.984 194.951 18.576C196.031 19.08 197.039 19.764 197.975 20.628C198.983 21.42 199.847 22.284 200.567 23.22C196.895 28.764 193.403 33.372 190.091 37.044C186.851 40.716 182.891 44.496 178.211 48.384C181.451 53.136 184.907 57.276 188.579 60.804C192.251 64.26 197.111 68.04 203.159 72.144C201.935 73.944 200.891 75.276 200.027 76.14C199.235 77.004 198.371 77.688 197.435 78.192C192.827 74.592 188.795 70.956 185.339 67.284C181.883 63.54 177.851 58.572 173.243 52.38C172.739 52.74 172.235 53.136 171.731 53.568C171.299 53.928 170.831 54.288 170.327 54.648C170.327 54.792 170.327 54.936 170.327 55.08C170.327 55.224 170.327 55.368 170.327 55.512ZM221.658 0.971994C222.666 1.044 223.53 1.188 224.25 1.40399C225.042 1.548 225.762 1.8 226.41 2.16C225.69 3.744 224.934 5.652 224.142 7.884C223.422 10.044 222.846 12.168 222.414 14.256C221.622 14.4 220.614 14.508 219.39 14.58C218.166 14.58 216.906 14.544 215.61 14.472C215.466 13.824 215.358 13.248 215.286 12.744C215.286 12.168 215.286 11.592 215.286 11.016C215.286 9.504 215.43 7.884 215.718 6.156C216.078 4.428 216.546 2.952 217.122 1.728C217.914 1.368 218.634 1.152 219.282 1.08C219.93 0.935997 220.722 0.899995 221.658 0.971994ZM213.342 27.216C214.206 26.712 215.07 26.352 215.934 26.136C216.87 25.848 217.842 25.704 218.85 25.704C219.426 25.704 219.93 25.74 220.362 25.812C220.866 25.884 221.37 25.992 221.874 26.136C220.434 33.696 219.426 42.552 218.85 52.704C218.274 62.856 218.274 72.324 218.85 81.108C218.346 81.396 217.698 81.612 216.906 81.756C216.114 81.9 215.322 81.972 214.53 81.972C214.17 81.972 213.81 81.936 213.45 81.864C213.162 81.864 212.802 81.828 212.37 81.756C211.146 72.612 210.606 63.18 210.75 53.46C210.966 43.668 211.83 34.92 213.342 27.216ZM241.104 62.964C241.104 66.348 241.176 70.2 241.32 74.52C241.464 78.768 241.644 81.864 241.86 83.808C240.924 84.096 239.808 84.348 238.512 84.564C237.216 84.78 235.956 84.888 234.732 84.888C234.228 77.328 233.796 67.536 233.436 55.512C233.076 43.488 232.896 33.3 232.896 24.948C233.616 24.588 234.48 24.3 235.488 24.084C236.496 23.868 237.54 23.76 238.62 23.76C239.34 23.76 240.024 23.796 240.672 23.868C241.392 23.94 242.112 24.048 242.832 24.192C242.688 25.488 242.508 27.576 242.292 30.456C242.148 33.264 242.04 35.1 241.968 35.964C244.344 32.004 246.864 29.052 249.528 27.108C252.192 25.164 255 24.192 257.952 24.192C262.416 24.192 265.656 25.848 267.672 29.16C269.76 32.4 270.804 37.512 270.804 44.496C270.804 50.112 270.336 56.412 269.4 63.396C268.536 70.38 267.6 75.852 266.592 79.812C265.44 79.74 264.144 79.596 262.704 79.38C261.336 79.092 260.076 78.768 258.924 78.408C260.22 71.352 261.156 65.088 261.732 59.616C262.308 54.144 262.596 48.996 262.596 44.172C262.596 39.636 262.02 36.36 260.868 34.344C259.788 32.328 257.988 31.32 255.468 31.32C252.948 31.32 250.428 32.58 247.908 35.1C245.46 37.62 243.336 41.076 241.536 45.468C241.392 50.652 241.284 54.432 241.212 56.808C241.14 59.184 241.104 61.236 241.104 62.964ZM290.561 53.244C290.561 59.796 291.497 64.944 293.369 68.688C295.241 72.432 297.725 74.304 300.821 74.304C303.197 74.304 305.213 73.116 306.869 70.74C308.597 68.292 310.073 64.512 311.297 59.4C311.153 54 310.757 49.068 310.109 44.604C309.533 40.068 308.669 35.856 307.517 31.968C306.869 31.752 306.149 31.608 305.357 31.536C304.637 31.392 303.881 31.32 303.089 31.32C298.913 31.32 295.781 33.156 293.693 36.828C291.605 40.428 290.561 45.9 290.561 53.244ZM319.721 62.748C319.721 77.292 317.813 88.416 313.997 96.12C310.181 103.824 304.925 107.676 298.229 107.676C293.621 107.676 289.805 106.128 286.781 103.032C283.757 99.936 281.849 95.724 281.057 90.396C282.137 89.604 283.325 88.92 284.621 88.344C285.989 87.768 287.357 87.336 288.725 87.048C289.445 92.16 290.597 95.868 292.181 98.172C293.765 100.476 295.961 101.628 298.769 101.628C302.369 101.628 305.249 99.072 307.409 93.96C309.569 88.92 310.865 81.54 311.297 71.82C309.857 74.772 308.165 76.968 306.221 78.408C304.349 79.848 302.153 80.568 299.633 80.568C294.161 80.568 289.805 78.156 286.565 73.332C283.397 68.436 281.813 61.848 281.813 53.568C281.813 44.784 283.757 37.872 287.645 32.832C291.605 27.72 296.897 25.164 303.521 25.164C305.609 25.164 307.733 25.416 309.893 25.92C312.125 26.424 314.177 27.144 316.049 28.08C317.129 32.76 317.993 38.34 318.641 44.82C319.361 51.228 319.721 57.204 319.721 62.748Z" fill="#FAFAFA"/>
<path d="M91.26 159.64C90.108 160.288 88.92 160.828 87.696 161.26C86.472 161.692 84.888 162.052 82.944 162.34C81.864 154.924 80.784 148.408 79.704 142.792C78.624 137.176 77.508 132.028 76.356 127.348C71.244 127.276 66.24 127.42 61.344 127.78C56.448 128.068 51.876 128.536 47.628 129.184C46.116 132.928 44.424 136.78 42.552 140.74C40.752 144.7 38.736 148.876 36.504 153.268C35.136 152.98 33.84 152.512 32.616 151.864C31.392 151.288 30.204 150.46 29.052 149.38C35.46 138.076 40.68 127.024 44.712 116.224C48.816 105.352 52.776 91.564 56.592 74.86C58.536 74.932 60.156 75.04 61.452 75.184C62.748 75.328 64.008 75.544 65.232 75.832C72.288 89.512 77.724 102.58 81.54 115.036C85.428 127.492 88.668 142.36 91.26 159.64ZM61.128 85.012C59.4 92.572 57.636 99.412 55.836 105.532C54.108 111.58 52.2 117.34 50.112 122.812C53.568 122.308 57.348 121.912 61.452 121.624C65.556 121.264 69.984 121.012 74.736 120.868C72.936 114.532 70.956 108.484 68.796 102.724C66.636 96.964 64.08 91.06 61.128 85.012ZM109.861 151.216C109.285 151.432 108.601 151.612 107.809 151.756C107.017 151.9 106.225 151.972 105.433 151.972C104.857 152.044 104.317 152.044 103.813 151.972C103.381 151.9 102.949 151.792 102.517 151.648C100.717 142.504 99.4933 132.928 98.8453 122.92C98.2693 112.912 98.2333 102.832 98.7373 92.68C99.2413 92.464 99.8533 92.32 100.573 92.248C101.293 92.104 102.373 92.032 103.813 92.032C104.533 92.032 105.217 92.104 105.865 92.248C106.585 92.32 107.305 92.464 108.025 92.68C107.593 95.776 107.269 98.404 107.053 100.564C106.837 102.724 106.693 104.776 106.621 106.72C108.277 101.104 110.473 96.676 113.209 93.436C115.945 90.196 118.789 88.576 121.741 88.576C124.621 88.576 126.745 89.656 128.113 91.816C129.481 93.904 130.165 97.144 130.165 101.536C130.165 102.4 130.129 103.336 130.057 104.344C129.985 105.352 129.913 106.432 129.841 107.584C128.977 107.8 127.933 107.98 126.709 108.124C125.557 108.196 124.297 108.196 122.929 108.124C123.073 107.044 123.181 106.036 123.253 105.1C123.325 104.092 123.361 103.12 123.361 102.184C123.361 99.88 123.073 98.188 122.497 97.108C121.921 95.956 121.057 95.38 119.905 95.38C117.457 95.38 115.009 97.972 112.561 103.156C110.113 108.268 108.169 114.928 106.729 123.136C106.945 127.24 107.305 131.632 107.809 136.312C108.313 140.92 108.997 145.888 109.861 151.216ZM162.267 128.644C163.419 128.788 164.535 129.04 165.615 129.4C166.767 129.688 167.739 130.084 168.531 130.588C168.387 136.636 167.163 141.388 164.859 144.844C162.627 148.228 159.567 149.92 155.679 149.92C151.143 149.92 147.723 147.364 145.419 142.252C143.115 137.068 141.963 129.436 141.963 119.356C141.963 116.044 142.071 112.732 142.287 109.42C142.503 106.108 142.827 102.724 143.259 99.268C141.891 99.196 140.523 99.052 139.155 98.836C137.859 98.62 136.527 98.368 135.159 98.08C135.231 97.072 135.375 96.1 135.591 95.164C135.807 94.228 136.095 93.364 136.455 92.572C137.823 92.86 139.119 93.112 140.343 93.328C141.567 93.544 142.791 93.688 144.015 93.76C144.303 91.888 144.663 89.872 145.095 87.712C145.599 85.48 146.247 82.744 147.039 79.504C148.551 79.576 150.027 79.756 151.467 80.044C152.979 80.26 154.419 80.584 155.787 81.016C155.067 83.392 154.419 85.696 153.843 87.928C153.267 90.16 152.799 92.32 152.439 94.408C155.319 94.48 158.127 94.48 160.863 94.408C163.599 94.264 166.263 94.084 168.855 93.868C168.855 94.588 168.747 95.416 168.531 96.352C168.387 97.216 168.171 98.152 167.883 99.16C165.219 99.448 162.483 99.664 159.675 99.808C156.939 99.88 154.203 99.88 151.467 99.808C150.963 103.192 150.567 106.648 150.279 110.176C149.991 113.704 149.847 117.16 149.847 120.544C149.847 128.176 150.387 134.008 151.467 138.04C152.619 142 154.239 143.98 156.327 143.98C158.271 143.98 159.711 142.756 160.647 140.308C161.655 137.788 162.195 133.9 162.267 128.644Z" fill="#FAFAFA"/>
</svg>
