<svg width="40" height="40" viewBox="0 0 40 40" fill="none" xmlns="http://www.w3.org/2000/svg">
<path fill-rule="evenodd" clip-rule="evenodd" d="M38.6381 6.90308C39.0775 6.08496 38.0813 6.33308 38.0813 6.33308C38.0813 6.33308 31.4394 12.7087 30.5163 11.9275C29.5931 11.1462 37.0194 5.03558 36.1406 3.89371C35.3275 2.82933 28.8031 10.4281 28.0194 9.49996C27.2431 8.57371 33.6063 1.92308 33.6063 1.92308C33.6063 1.92308 33.8481 0.921834 33.0363 1.36058C23.0319 6.74058 21.7575 11.7562 21.7575 11.7562C21.7575 11.7562 21.4131 12.7331 22.1606 13.4881C22.2338 13.5537 3.90815 31.7756 1.45502 34.2356C0.261271 35.4281 4.64127 39.7362 5.82752 38.5437C8.28127 36.0837 26.4675 17.7293 26.5331 17.7975C27.2875 18.5506 28.2619 18.205 28.2619 18.205C28.2619 18.205 33.2694 16.9268 38.6381 6.90308" fill="#727677"/>
<path fill-rule="evenodd" clip-rule="evenodd" d="M20.0176 25.3168C24.8945 30.2043 33.1163 38.4412 33.1163 38.4412C33.1163 38.4412 36.7051 37.2668 37.2107 34.2356L24.1638 21.1631C22.7805 22.5464 21.3984 23.931 20.0176 25.3168M13.6001 21.0806C15.3494 19.3326 17.0967 17.5826 18.842 15.8306L4.66195 1.62372C4.66195 1.62372 4.4057 1.35497 3.84133 1.92184C2.7207 3.03872 0.552575 10.155 9.74445 19.3606C11.2013 20.8206 12.4688 21.0231 13.6001 21.0806" fill="#727677"/>
</svg>
