<svg width="40" height="40" viewBox="0 0 40 40" fill="none" xmlns="http://www.w3.org/2000/svg">
<path fill-rule="evenodd" clip-rule="evenodd" d="M12.3409 28.9284C18.0451 28.095 21.9726 28.1667 27.6842 28.9575C28.0979 29.0175 28.4759 29.2251 28.7483 29.542C29.0208 29.8589 29.1695 30.2637 29.1667 30.6817C29.1667 31.0817 29.0292 31.47 28.7809 31.7734C28.3481 32.3022 27.9047 32.8223 27.4509 33.3334H29.6517C29.7901 33.1684 29.9292 33 30.0701 32.8292C30.5644 32.223 30.834 31.4647 30.8334 30.6825C30.8334 28.995 29.6017 27.5409 27.9126 27.3075C22.0659 26.4984 17.9792 26.4209 12.1001 27.28C10.3934 27.5292 9.16675 29.0059 9.16675 30.705C9.16675 31.4592 9.41258 32.205 9.87841 32.8092C10.0159 32.9875 10.1517 33.1625 10.2867 33.3342H12.4342C12.0121 32.8288 11.6003 32.3148 11.1992 31.7925C10.9609 31.4799 10.8323 31.0973 10.8334 30.7042C10.8334 29.8067 11.4784 29.0542 12.3409 28.9284ZM20.0001 20.8334C20.6567 20.8334 21.3069 20.704 21.9135 20.4528C22.5201 20.2015 23.0713 19.8332 23.5356 19.3689C23.9999 18.9046 24.3682 18.3534 24.6195 17.7468C24.8708 17.1401 25.0001 16.49 25.0001 15.8334C25.0001 15.1767 24.8708 14.5266 24.6195 13.9199C24.3682 13.3133 23.9999 12.7621 23.5356 12.2978C23.0713 11.8335 22.5201 11.4652 21.9135 11.214C21.3069 10.9627 20.6567 10.8334 20.0001 10.8334C18.674 10.8334 17.4022 11.3601 16.4645 12.2978C15.5269 13.2355 15.0001 14.5073 15.0001 15.8334C15.0001 17.1594 15.5269 18.4312 16.4645 19.3689C17.4022 20.3066 18.674 20.8334 20.0001 20.8334ZM20.0001 22.5C21.7682 22.5 23.4639 21.7976 24.7141 20.5474C25.9644 19.2972 26.6667 17.6015 26.6667 15.8334C26.6667 14.0652 25.9644 12.3696 24.7141 11.1193C23.4639 9.86907 21.7682 9.16669 20.0001 9.16669C18.232 9.16669 16.5363 9.86907 15.286 11.1193C14.0358 12.3696 13.3334 14.0652 13.3334 15.8334C13.3334 17.6015 14.0358 19.2972 15.286 20.5474C16.5363 21.7976 18.232 22.5 20.0001 22.5Z" fill="#E03614"/>
<path fill-rule="evenodd" clip-rule="evenodd" d="M20 35C28.2842 35 35 28.2842 35 20C35 11.7158 28.2842 5.00001 20 5.00001C11.7159 5.00001 5.00004 11.7158 5.00004 20C5.00004 28.2842 11.7159 35 20 35ZM20 36.6667C29.205 36.6667 36.6667 29.205 36.6667 20C36.6667 10.795 29.205 3.33334 20 3.33334C10.795 3.33334 3.33337 10.795 3.33337 20C3.33337 29.205 10.795 36.6667 20 36.6667Z" fill="#E03614"/>
</svg>
