<svg width="40" height="40" viewBox="0 0 40 40" fill="none" xmlns="http://www.w3.org/2000/svg">
<path d="M28.75 25C27.8143 25.0047 26.8917 25.2194 26.0501 25.6283C25.2085 26.0372 24.4695 26.6299 23.8875 27.3625L14.75 21.65C15.083 20.5752 15.083 19.4248 14.75 18.35L23.8875 12.6375C24.8149 13.7859 26.1189 14.569 27.5684 14.848C29.0179 15.127 30.5194 14.884 31.8069 14.162C33.0944 13.44 34.0848 12.2856 34.6026 10.9033C35.1205 9.521 35.1324 8.00002 34.6362 6.60979C34.14 5.21956 33.1677 4.04982 31.8917 3.30779C30.6156 2.56575 29.1181 2.29931 27.6644 2.55567C26.2107 2.81203 24.8947 3.57463 23.9494 4.7084C23.0042 5.84216 22.4907 7.27391 22.5 8.75C22.5059 9.30897 22.59 9.86437 22.75 10.4L13.6125 16.1125C12.8058 15.097 11.7032 14.3576 10.4574 13.9967C9.21169 13.6359 7.88456 13.6716 6.66 14.0988C5.43544 14.526 4.3741 15.3235 3.62309 16.3809C2.87209 17.4383 2.46863 18.7031 2.46863 20C2.46863 21.2969 2.87209 22.5618 3.62309 23.6191C4.3741 24.6765 5.43544 25.4741 6.66 25.9012C7.88456 26.3284 9.21169 26.3641 10.4574 26.0033C11.7032 25.6424 12.8058 24.903 13.6125 23.8875L22.75 29.6C22.59 30.1356 22.5059 30.691 22.5 31.25C22.5 32.4861 22.8665 33.6945 23.5533 34.7223C24.2401 35.7501 25.2162 36.5512 26.3582 37.0243C27.5002 37.4973 28.7569 37.6211 29.9693 37.3799C31.1817 37.1388 32.2953 36.5435 33.1694 35.6694C34.0435 34.7953 34.6387 33.6817 34.8799 32.4693C35.1211 31.2569 34.9973 30.0003 34.5242 28.8582C34.0512 27.7162 33.2501 26.7401 32.2223 26.0533C31.1945 25.3666 29.9861 25 28.75 25ZM28.75 5C29.4917 5 30.2167 5.21993 30.8334 5.63199C31.4501 6.04404 31.9307 6.62971 32.2145 7.31494C32.4984 8.00016 32.5726 8.75416 32.4279 9.48159C32.2832 10.209 31.9261 10.8772 31.4016 11.4017C30.8772 11.9261 30.209 12.2833 29.4816 12.4279C28.7541 12.5726 28.0001 12.4984 27.3149 12.2145C26.6297 11.9307 26.044 11.4501 25.632 10.8334C25.2199 10.2167 25 9.49168 25 8.75C25 7.75544 25.3951 6.80161 26.0983 6.09835C26.8016 5.39509 27.7554 5 28.75 5ZM8.74999 23.75C8.00831 23.75 7.28328 23.5301 6.6666 23.118C6.04991 22.706 5.56927 22.1203 5.28544 21.4351C5.00161 20.7498 4.92735 19.9958 5.07204 19.2684C5.21674 18.541 5.57389 17.8728 6.09834 17.3483C6.62278 16.8239 7.29097 16.4668 8.0184 16.3221C8.74583 16.1774 9.49983 16.2516 10.185 16.5355C10.8703 16.8193 11.4559 17.2999 11.868 17.9166C12.2801 18.5333 12.5 19.2583 12.5 20C12.5 20.9946 12.1049 21.9484 11.4016 22.6517C10.6984 23.3549 9.74455 23.75 8.74999 23.75ZM28.75 35C28.0083 35 27.2833 34.7801 26.6666 34.368C26.0499 33.956 25.5693 33.3703 25.2854 32.6851C25.0016 31.9998 24.9273 31.2458 25.072 30.5184C25.2167 29.791 25.5739 29.1228 26.0983 28.5984C26.6228 28.0739 27.291 27.7168 28.0184 27.5721C28.7458 27.4274 29.4998 27.5016 30.185 27.7855C30.8703 28.0693 31.4559 28.5499 31.868 29.1666C32.2801 29.7833 32.5 30.5083 32.5 31.25C32.5 32.2446 32.1049 33.1984 31.4016 33.9017C30.6984 34.6049 29.7445 35 28.75 35Z" fill="#E03614"/>
</svg>
