<svg width="40" height="40" viewBox="0 0 40 40" fill="none" xmlns="http://www.w3.org/2000/svg">
<g clip-path="url(#clip0_84_429)">
<path d="M19.9999 6.87008L18.2074 5.02758C13.9999 0.702576 6.28486 2.19508 3.49986 7.63258C2.19236 10.1901 1.89736 13.8826 4.28486 18.5951C6.58486 23.1326 11.3699 28.5676 19.9999 34.4876C28.6299 28.5676 33.4124 23.1326 35.7149 18.5951C38.1024 13.8801 37.8099 10.1901 36.4999 7.63258C33.7149 2.19508 25.9999 0.700076 21.7924 5.02508L19.9999 6.87008ZM19.9999 37.5001C-18.3326 12.1701 8.19736 -7.59992 19.5599 2.85758C19.7099 2.99508 19.8574 3.13758 19.9999 3.28508C20.1409 3.13771 20.2877 2.99593 20.4399 2.86008C31.7999 -7.60492 58.3324 12.1676 19.9999 37.5001Z" fill="#E03614"/>
</g>
<defs>
<clipPath id="clip0_84_429">
<rect width="40" height="40" fill="white"/>
</clipPath>
</defs>
</svg>
